<?xml version="1.0" encoding="UTF-8"?>
<!DOCTYPE svg PUBLIC "-//W3C//DTD SVG 1.1//EN" "http://www.w3.org/Graphics/SVG/1.1/DTD/svg11.dtd">
<!-- Creator: CorelDRAW -->
<svg xmlns="http://www.w3.org/2000/svg" xml:space="preserve" width="120px" height="131px" version="1.1" style="shape-rendering:geometricPrecision; text-rendering:geometricPrecision; image-rendering:optimizeQuality; fill-rule:evenodd; clip-rule:evenodd"
viewBox="0 0 45.22 49.25"
 xmlns:xlink="http://www.w3.org/1999/xlink">
 <defs>
  <style type="text/css">
   <![CDATA[
    .fil0 {fill:#000434}
    .fil2 {fill:#F5891E}
    .fil1 {fill:#F5891E;fill-rule:nonzero}
   ]]>
  </style>
 </defs>
 <g id="Layer_x0020_1">
  <metadata id="CorelCorpID_0Corel-Layer"/>
  <path class="fil0" d="M35.98 10.05l7.15 0 0 12.71c0,5.95 -2.42,11.35 -6.32,15.25 -3.9,3.9 -9.29,6.31 -15.25,6.31 -5.95,0 -11.34,-2.41 -15.24,-6.31 -3.91,-3.9 -6.32,-9.3 -6.32,-15.25l0 -9.14c0,-1.96 1.61,-3.57 3.57,-3.57l0 0c1.97,0 3.58,1.61 3.58,3.57l0 9.14c0,3.98 1.61,7.59 4.22,10.2 2.61,2.6 6.21,4.22 10.19,4.22 3.98,0 7.59,-1.62 10.2,-4.22 2.61,-2.61 4.22,-6.22 4.22,-10.2l0 -12.71z"/>
  <path class="fil1" d="M21.56 11.64c3.11,0 5.92,1.26 7.96,3.29 2.04,2.04 3.3,4.85 3.3,7.96 0,3.11 -1.26,5.92 -3.3,7.96 -2.04,2.03 -4.85,3.29 -7.96,3.29 -3.1,0 -5.92,-1.26 -7.95,-3.29 -2.04,-2.04 -3.3,-4.85 -3.3,-7.96 0,-3.11 1.26,-5.92 3.3,-7.96 2.03,-2.03 4.85,-3.29 7.95,-3.29zm3.98 7.27c-1.02,-1.01 -2.42,-1.64 -3.98,-1.64 -1.55,0 -2.96,0.63 -3.97,1.64 -1.02,1.02 -1.65,2.43 -1.65,3.98 0,1.56 0.63,2.96 1.65,3.98 1.01,1.02 2.42,1.65 3.97,1.65 1.56,0 2.96,-0.63 3.98,-1.65 1.02,-1.02 1.65,-2.42 1.65,-3.98 0,-1.55 -0.63,-2.96 -1.65,-3.98z"/>
  <circle class="fil2" cx="11.85" cy="47.07" r="2.17"/>
  <circle class="fil2" cx="30.69" cy="47.07" r="2.17"/>
  <path class="fil2" d="M44.13 4.48l0.4 0.54c1.23,1.69 0.8,4.25 -1.2,4.25 -7.56,-0.02 0,0 -7.56,-0.02 -1.99,0 -2.42,-2.55 -1.19,-4.24l0.21 -0.29 0 0 2.2 -3 0.09 -0.13 0 0 0.22 -0.29c1.23,-1.68 3.22,-1.74 4.4,-0.13l2.43 3.31 0 0z"/>
 </g>
</svg>
